<!DOCTYPE svg PUBLIC "-//W3C//DTD SVG 20010904//EN"
 "http://www.w3.org/TR/2001/REC-SVG-20010904/DTD/svg10.dtd">
<svg version="1.0" xmlns="http://www.w3.org/2000/svg"
 width="200px" height="80px" viewBox="0 0 200.000000 50.000000"
 preserveAspectRatio="xMidYMid meet">

<g transform="translate(0.000000,50.000000) scale(0.100000,-0.100000)"
fill="#d8334a" stroke="none">
<path d="M290 421 c-21 -6 -26 -14 -30 -51 -4 -34 -9 -44 -20 -41 -68 18 -121
-6 -147 -66 -41 -99 25 -197 111 -165 19 7 32 8 36 2 8 -12 80 9 80 24 0 6 7
74 15 151 8 77 15 143 15 148 0 8 -25 8 -60 -2z m-52 -153 c15 -15 16 -57 2
-93 -14 -38 -60 -32 -71 9 -16 60 33 120 69 84z"/>
<path d="M712 420 c-18 -4 -35 -10 -38 -13 -7 -6 -31 -317 -25 -317 2 0 21 5
42 12 25 7 39 17 39 28 0 20 18 223 24 268 3 17 2 32 -2 31 -4 -1 -22 -5 -40
-9z"/>
<path d="M840 402 c-42 -21 -64 -61 -55 -102 4 -16 27 -49 52 -74 29 -27 43
-48 38 -56 -7 -12 -44 -10 -78 5 -17 7 -18 4 -11 -31 8 -46 17 -54 62 -54 53
0 100 25 118 63 24 50 12 80 -46 124 -29 21 -49 44 -48 53 4 21 45 24 74 6
l24 -16 0 39 c0 30 -5 43 -19 51 -29 15 -71 12 -111 -8z"/>
<path d="M1843 393 c-28 -4 -33 -9 -33 -30 0 -14 -12 -39 -26 -56 -26 -31 -26
-31 -5 -41 18 -8 20 -16 18 -78 -3 -86 13 -103 83 -94 52 7 64 17 56 44 -5 14
-13 18 -30 15 -32 -6 -39 9 -31 67 6 43 10 49 32 52 16 2 29 12 34 26 7 20 5
22 -21 22 -28 0 -30 2 -30 40 0 22 -3 39 -7 38 -5 0 -23 -3 -40 -5z"/>
<path d="M572 330 c-18 -4 -35 -9 -37 -12 -2 -2 -7 -35 -11 -73 -8 -79 -16
-95 -50 -95 -27 0 -29 14 -15 123 7 53 6 57 -13 57 -61 -1 -64 -5 -71 -106 -7
-83 -5 -97 10 -114 20 -22 50 -25 91 -10 16 6 30 7 33 2 4 -5 23 -4 46 2 l40
12 10 112 c6 62 8 112 5 111 -3 -1 -20 -5 -38 -9z"/>
<path d="M1050 331 c-25 -7 -25 -10 -39 -164 -7 -87 -11 -160 -8 -164 3 -3 21
-3 40 1 33 6 35 9 41 56 6 46 9 49 26 40 72 -38 150 37 150 145 0 76 -61 117
-123 84 -16 -9 -22 -9 -25 0 -4 12 -23 13 -62 2z m128 -98 c4 -57 -12 -85 -46
-81 -25 3 -27 7 -30 51 -4 57 11 79 47 75 23 -3 26 -8 29 -45z"/>
<path d="M1358 320 c-21 -11 -45 -34 -54 -52 -23 -45 -14 -113 20 -147 23 -22
35 -26 87 -26 57 0 62 2 95 37 29 32 34 45 34 88 0 40 -5 56 -28 81 -36 41
-100 49 -154 19z m98 -65 c17 -26 13 -67 -8 -92 -13 -16 -50 -17 -66 -1 -15
15 -16 72 -2 99 15 27 56 24 76 -6z"/>
<path d="M1628 328 l-36 -10 -7 -86 c-3 -48 -9 -99 -11 -115 -6 -31 2 -33 51
-13 31 13 35 19 35 53 0 21 5 55 10 75 9 32 16 38 45 44 26 5 37 13 41 31 9
34 -1 39 -41 20 -30 -14 -35 -15 -35 -2 0 17 -1 17 -52 3z"/>
</g>
</svg>
